<svg width="135" height="40" viewBox="0 0 135 40" fill="none" xmlns="http://www.w3.org/2000/svg">
  <rect width="135" height="40" rx="6" fill="black"/>
  <path d="M30.128 19.784C30.099 16.139 33.149 14.346 33.259 14.274C31.411 11.521 28.531 11.178 27.528 11.153C25.062 10.899 22.681 12.668 21.424 12.668C20.167 12.668 18.216 11.179 16.13 11.229C13.418 11.277 10.893 12.903 9.543 15.38C6.752 20.431 8.868 28.007 11.536 32.236C12.886 34.308 14.469 36.612 16.553 36.53C18.608 36.447 19.354 35.213 21.84 35.213C24.326 35.213 25.023 36.53 27.158 36.481C29.336 36.447 30.7 34.411 32.025 32.32C33.598 29.981 34.241 27.642 34.275 27.524C34.224 27.507 30.162 25.957 30.128 19.784Z" fill="white"/>
  <path d="M26.52 6.73C27.629 5.376 28.359 3.54 28.154 1.67C26.596 1.736 24.66 2.755 23.517 4.075C22.492 5.245 21.622 7.13 21.86 8.95C23.602 9.066 25.377 8.05 26.52 6.73Z" fill="white"/>
  <path d="M53.645 31.504H51.441L50.246 27.804H45.863L44.726 31.504H42.588L46.921 18.732H49.26L53.645 31.504ZM49.892 26.179L48.685 22.496C48.552 22.092 48.288 21.033 47.892 19.317H47.843C47.696 20.042 47.449 21.1 47.103 22.496L45.913 26.179H49.892Z" fill="white"/>
  <path d="M65.953 26.855C65.953 28.429 65.51 29.672 64.625 30.584C63.823 31.404 62.863 31.815 61.745 31.815C60.528 31.815 59.644 31.371 59.096 30.483H59.046V35.447H56.957V25.042C56.957 24.032 56.924 22.989 56.859 21.912H58.684L58.783 23.387H58.833C59.53 22.226 60.578 21.646 61.977 21.646C63.062 21.646 63.997 22.076 64.783 22.938C65.563 23.799 65.953 25.141 65.953 26.855ZM63.831 26.93C63.831 25.842 63.608 24.949 63.161 24.253C62.68 23.541 62.013 23.184 61.16 23.184C60.577 23.184 60.047 23.385 59.572 23.785C59.096 24.185 58.792 24.703 58.66 25.337C58.594 25.638 58.561 25.888 58.561 26.089V27.944C58.561 28.646 58.783 29.235 59.228 29.718C59.678 30.201 60.255 30.443 60.972 30.443C61.843 30.443 62.517 30.092 62.998 29.389C63.474 28.686 63.831 27.868 63.831 26.93Z" fill="white"/>
  <path d="M78.267 26.855C78.267 28.429 77.825 29.672 76.94 30.584C76.138 31.404 75.178 31.815 74.06 31.815C72.843 31.815 71.959 31.371 71.411 30.483H71.361V35.447H69.272V25.042C69.272 24.032 69.239 22.989 69.174 21.912H70.999L71.098 23.387H71.148C71.845 22.226 72.893 21.646 74.292 21.646C75.377 21.646 76.312 22.076 77.098 22.938C77.877 23.799 78.267 25.141 78.267 26.855ZM76.146 26.93C76.146 25.842 75.922 24.949 75.476 24.253C74.994 23.541 74.328 23.184 73.474 23.184C72.891 23.184 72.361 23.385 71.887 23.785C71.41 24.185 71.106 24.703 70.974 25.337C70.908 25.638 70.875 25.888 70.875 26.089V27.944C70.875 28.646 71.098 29.235 71.542 29.718C71.992 30.195 72.57 30.437 73.287 30.437C74.158 30.437 74.832 30.085 75.313 29.383C75.868 28.68 76.146 27.861 76.146 26.93Z" fill="white"/>
  <path d="M91.129 28.156C91.129 29.195 90.755 30.059 90.006 30.75C89.175 31.491 88.011 31.864 86.514 31.864C85.131 31.864 84.017 31.585 83.175 31.026L83.622 29.421C84.515 29.98 85.508 30.26 86.597 30.26C87.417 30.26 88.058 30.084 88.515 29.734C88.973 29.383 89.203 28.908 89.203 28.308C89.203 27.76 89.016 27.308 88.645 26.951C88.269 26.594 87.636 26.26 86.744 25.95C84.629 25.183 83.573 24.075 83.573 22.626C83.573 21.62 83.963 20.798 84.744 20.158C85.525 19.517 86.547 19.198 87.812 19.198C88.995 19.198 89.986 19.418 90.779 19.859L90.293 21.43C89.55 21.001 88.696 20.785 87.729 20.785C86.959 20.785 86.359 20.962 85.935 21.312C85.568 21.63 85.384 22.022 85.384 22.491C85.384 23.022 85.591 23.459 86.006 23.8C86.37 24.116 87.031 24.45 87.98 24.802C89.144 25.253 89.982 25.781 90.499 26.387C91.011 26.993 91.129 27.718 91.266 28.156H91.129Z" fill="white"/>
  <path d="M98.433 23.259H96.161V28.073C96.161 29.263 96.591 29.856 97.454 29.856C97.855 29.856 98.189 29.823 98.457 29.755L98.507 31.28C98.106 31.429 97.556 31.503 96.855 31.503C95.983 31.503 95.307 31.247 94.828 30.733C94.352 30.22 94.111 29.329 94.111 28.06V23.253H92.67V21.711H94.111V19.996L96.161 19.358V21.711H98.433V23.259Z" fill="white"/>
  <path d="M110.14 26.898C110.14 28.272 109.731 29.399 108.913 30.278C108.061 31.19 106.917 31.644 105.483 31.644C104.115 31.644 103.013 31.204 102.176 30.326C101.341 29.448 100.927 28.354 100.927 27.044C100.927 25.664 101.348 24.537 102.192 23.664C103.037 22.79 104.166 22.353 105.583 22.353C106.951 22.353 108.07 22.79 108.941 23.664C109.739 24.52 110.14 25.601 110.14 26.898ZM108.019 26.955C108.019 26.066 107.824 25.31 107.441 24.684C106.993 23.908 106.352 23.519 105.534 23.519C104.682 23.519 104.034 23.908 103.594 24.684C103.211 25.31 103.016 26.073 103.016 26.975C103.016 27.864 103.211 28.619 103.594 29.245C104.047 30.021 104.688 30.41 105.527 30.41C106.326 30.41 106.974 30.015 107.434 29.226C107.824 28.593 108.019 27.85 108.019 26.955Z" fill="white"/>
  <path d="M117.622 23.54C117.425 23.501 117.217 23.483 116.996 23.483C116.236 23.483 115.65 23.786 115.238 24.393C114.875 24.933 114.693 25.594 114.693 26.375V31.478H112.614V24.855C112.614 23.779 112.587 22.8 112.531 21.916H114.364L114.446 23.68H114.505C114.719 23.075 115.057 22.583 115.52 22.204C115.982 21.862 116.481 21.691 117.014 21.691C117.212 21.691 117.386 21.704 117.535 21.729L117.622 23.54Z" fill="white"/>
  <path d="M127.744 26.517C127.744 26.859 127.72 27.143 127.67 27.368H121.554C121.571 28.257 121.867 28.925 122.438 29.375C122.955 29.782 123.636 29.987 124.471 29.987C125.392 29.987 126.235 29.85 126.994 29.576L127.307 30.98C126.433 31.338 125.386 31.516 124.165 31.516C122.714 31.516 121.571 31.08 120.741 30.206C119.91 29.333 119.495 28.156 119.495 26.675C119.495 25.219 119.876 24.01 120.64 23.055C121.438 22.034 122.54 21.524 123.947 21.524C125.322 21.524 126.367 22.034 127.075 23.055C127.622 23.87 127.786 25.013 127.786 26.484V26.517H127.744ZM125.762 25.945C125.778 25.358 125.663 24.845 125.424 24.405C125.112 23.824 124.621 23.532 123.947 23.532C123.331 23.532 122.833 23.818 122.454 24.386C122.142 24.825 121.954 25.345 121.894 25.933H125.762V25.945Z" fill="white"/>
  <path d="M49.501 11.496C49.501 12.419 49.205 13.134 48.607 13.641C48.06 14.103 47.298 14.334 46.328 14.334C45.808 14.334 45.358 14.306 44.978 14.24V9.023C45.465 8.933 45.977 8.891 46.514 8.891C47.436 8.891 48.144 9.106 48.639 9.539C49.214 10.038 49.501 10.69 49.501 11.496ZM48.543 11.523C48.543 10.973 48.378 10.542 48.046 10.217C47.714 9.892 47.245 9.731 46.644 9.731C46.361 9.731 46.119 9.754 45.919 9.796V13.473C46.034 13.493 46.228 13.5 46.507 13.5C47.132 13.5 47.618 13.328 47.967 12.981C48.352 12.635 48.543 12.156 48.543 11.523Z" fill="white"/>
  <path d="M55.764 12.226C55.764 12.872 55.556 13.4 55.135 13.817C54.694 14.24 54.104 14.452 53.371 14.452C52.665 14.452 52.09 14.247 51.648 13.838C51.207 13.428 50.986 12.92 50.986 12.314C50.986 11.66 51.2 11.126 51.628 10.716C52.056 10.306 52.64 10.1 53.374 10.1C54.08 10.1 54.662 10.306 55.119 10.716C55.55 11.112 55.764 11.633 55.764 12.226ZM54.835 12.254C54.835 11.864 54.739 11.536 54.552 11.266C54.331 10.943 54.023 10.781 53.622 10.781C53.207 10.781 52.892 10.943 52.673 11.266C52.487 11.536 52.392 11.868 52.392 12.261C52.392 12.65 52.487 12.978 52.673 13.248C52.898 13.571 53.21 13.733 53.612 13.733C54.003 13.733 54.315 13.568 54.539 13.238C54.732 12.961 54.835 12.639 54.835 12.254Z" fill="white"/>
  <path d="M63.753 10.201L62.057 14.372H61.189L60.42 12.36C60.244 11.88 60.106 11.405 60 10.94H59.986C59.889 11.416 59.751 11.891 59.566 12.36L58.764 14.372H57.889L56.282 10.201H57.736L58.414 12.35C58.564 12.85 58.679 13.326 58.764 13.774H58.778C58.861 13.408 58.999 12.933 59.196 12.35L60.017 10.201H60.818L61.607 12.323C61.773 12.816 61.908 13.298 62.007 13.774H62.034C62.11 13.312 62.227 12.829 62.387 12.323L63.111 10.201H63.753Z" fill="white"/>
  <path d="M69.553 14.372H68.186V11.997C68.186 11.278 67.903 10.919 67.341 10.919C67.058 10.919 66.831 11.021 66.664 11.226C66.493 11.429 66.407 11.67 66.407 11.94V14.372H65.046V10.873C65.046 10.388 65.033 9.865 65 9.301H66.2L66.254 10.108H66.288C66.418 9.872 66.608 9.669 66.866 9.508C67.163 9.315 67.497 9.222 67.87 9.222C68.335 9.222 68.721 9.36 69.022 9.639C69.42 9.984 69.553 10.508 69.553 11.208V14.372Z" fill="white"/>
  <path d="M72.666 14.372H71.306V7.709H72.666V14.372Z" fill="white"/>
  <path d="M79.139 12.226C79.139 12.872 78.93 13.4 78.51 13.817C78.068 14.24 77.478 14.452 76.745 14.452C76.039 14.452 75.464 14.247 75.023 13.838C74.581 13.428 74.361 12.92 74.361 12.314C74.361 11.66 74.575 11.126 75.002 10.716C75.43 10.306 76.014 10.1 76.748 10.1C77.454 10.1 78.036 10.306 78.494 10.716C78.922 11.112 79.139 11.633 79.139 12.226ZM78.21 12.254C78.21 11.864 78.114 11.536 77.928 11.266C77.706 10.943 77.398 10.781 76.997 10.781C76.582 10.781 76.267 10.943 76.048 11.266C75.861 11.536 75.766 11.868 75.766 12.261C75.766 12.65 75.861 12.978 76.048 13.248C76.273 13.571 76.585 13.733 76.986 13.733C77.378 13.733 77.69 13.568 77.914 13.238C78.107 12.961 78.21 12.639 78.21 12.254Z" fill="white"/>
  <path d="M84.399 14.372H83.102L83.048 13.757H83.018C82.707 14.246 82.215 14.491 81.543 14.491C81.032 14.491 80.627 14.325 80.319 13.991C80.037 13.687 79.894 13.328 79.894 12.907C79.894 12.251 80.161 11.76 80.693 11.437C81.226 11.114 81.96 10.957 82.895 10.967V10.888C82.895 10.347 82.612 10.075 82.047 10.075C81.602 10.075 81.204 10.191 80.853 10.427L80.602 9.783C81.039 9.492 81.598 9.345 82.274 9.345C83.502 9.345 84.119 10.001 84.119 11.316V13.176C84.119 13.635 84.146 14.038 84.199 14.384H84.399V14.372ZM82.933 11.781C82.297 11.767 81.825 11.846 81.518 12.013C81.211 12.18 81.057 12.441 81.057 12.793C81.057 13.035 81.128 13.217 81.267 13.344C81.407 13.471 81.586 13.534 81.799 13.534C82.06 13.534 82.29 13.454 82.483 13.298C82.678 13.141 82.784 12.938 82.804 12.693C82.814 12.63 82.823 12.554 82.823 12.461V11.781H82.933Z" fill="white"/>
  <path d="M90.77 14.372H89.52L89.475 13.731H89.438C89.126 14.212 88.634 14.453 87.962 14.453C87.381 14.453 86.904 14.247 86.526 13.837C86.149 13.428 85.961 12.913 85.961 12.296C85.961 11.628 86.163 11.074 86.564 10.632C86.952 10.223 87.425 10.02 87.983 10.02C88.587 10.02 89.013 10.201 89.271 10.561H89.298V7.709H90.657V13.052C90.657 13.479 90.67 13.939 90.695 14.384H90.77V14.372ZM89.298 12.025V11.603C89.298 11.389 89.275 11.207 89.232 11.06C89.152 10.826 89.01 10.632 88.807 10.478C88.604 10.326 88.368 10.248 88.093 10.248C87.715 10.248 87.411 10.388 87.178 10.667C86.945 10.947 86.83 11.309 86.83 11.748C86.83 12.164 86.942 12.504 87.168 12.77C87.404 13.05 87.711 13.189 88.085 13.189C88.423 13.189 88.702 13.076 88.921 12.85C89.166 12.596 89.298 12.339 89.298 12.025Z" fill="white"/>
  <path d="M97.369 12.226C97.369 12.872 97.161 13.4 96.741 13.817C96.3 14.24 95.709 14.452 94.976 14.452C94.27 14.452 93.695 14.247 93.254 13.838C92.812 13.428 92.592 12.92 92.592 12.314C92.592 11.66 92.806 11.126 93.233 10.716C93.661 10.306 94.245 10.1 94.979 10.1C95.685 10.1 96.268 10.306 96.725 10.716C97.148 11.112 97.369 11.633 97.369 12.226ZM96.437 12.254C96.437 11.864 96.341 11.536 96.155 11.266C95.934 10.943 95.625 10.781 95.224 10.781C94.809 10.781 94.494 10.943 94.275 11.266C94.089 11.536 93.994 11.868 93.994 12.261C93.994 12.65 94.089 12.978 94.275 13.248C94.5 13.571 94.813 13.733 95.214 13.733C95.605 13.733 95.917 13.568 96.142 13.238C96.335 12.961 96.437 12.639 96.437 12.254Z" fill="white"/>
  <path d="M102.442 14.372H101.075V11.997C101.075 11.278 100.794 10.919 100.231 10.919C99.948 10.919 99.72 11.021 99.552 11.226C99.381 11.429 99.295 11.67 99.295 11.94V14.372H97.934V10.873C97.934 10.388 97.921 9.865 97.889 9.301H99.088L99.141 10.108H99.174C99.304 9.872 99.495 9.669 99.752 9.508C100.049 9.315 100.384 9.222 100.756 9.222C101.221 9.222 101.609 9.36 101.908 9.639C102.303 9.984 102.442 10.508 102.442 11.208V14.372Z" fill="white"/>
</svg>