<svg width="500" height="350" viewBox="0 0 500 350" fill="none" xmlns="http://www.w3.org/2000/svg">
  <rect x="50" y="25" width="400" height="300" rx="20" fill="#F7FAFC" stroke="#4A90E2" stroke-width="2"/>
  <rect x="75" y="50" width="350" height="250" rx="10" fill="white" stroke="#4A90E2" stroke-width="1"/>
  
  <!-- Chat Bubbles -->
  <rect x="90" y="70" width="150" height="40" rx="18" fill="#E6F0FF"/>
  <rect x="260" y="120" width="150" height="40" rx="18" fill="#E6FBF8"/>
  <rect x="90" y="170" width="150" height="40" rx="18" fill="#E6F0FF"/>
  <rect x="260" y="220" width="150" height="40" rx="18" fill="#E6FBF8"/>
  
  <!-- Text Lines -->
  <rect x="110" y="85" width="110" height="10" rx="2" fill="#4A90E2"/>
  <rect x="280" y="135" width="110" height="10" rx="2" fill="#5ECDB6"/>
  <rect x="110" y="185" width="110" height="10" rx="2" fill="#4A90E2"/>
  <rect x="280" y="235" width="110" height="10" rx="2" fill="#5ECDB6"/>
  
  <!-- Meditation Status -->
  <circle cx="250" cy="300" r="8" fill="#9D8DF1"/>
  <circle cx="250" cy="300" r="20" fill="none" stroke="#9D8DF1" stroke-width="2" stroke-dasharray="4 4"/>
  <circle cx="250" cy="300" r="35" fill="none" stroke="#9D8DF1" stroke-width="1" stroke-dasharray="2 2"/>
  
  <!-- Mood Graph -->
  <line x1="90" y1="270" x2="410" y2="270" stroke="#E2E8F0" stroke-width="1"/>
  <path d="M90 260C110 240 130 250 150 235C170 220 190 250 210 245C230 240 250 220 270 225C290 230 310 245 330 230C350 215 370 240 390 230C410 220" stroke="#4A90E2" stroke-width="2" stroke-linecap="round"/>
  <circle cx="150" cy="235" r="4" fill="#4A90E2"/>
  <circle cx="270" cy="225" r="4" fill="#4A90E2"/>
  <circle cx="330" cy="230" r="4" fill="#4A90E2"/>
  <circle cx="390" cy="230" r="4" fill="#4A90E2"/>
</svg>