<svg width="500" height="400" viewBox="0 0 500 400" fill="none" xmlns="http://www.w3.org/2000/svg">
  <rect x="60" y="40" width="160" height="320" rx="20" fill="#F7FAFC" stroke="#4A90E2" stroke-width="2"/>
  <rect x="85" y="80" width="110" height="220" rx="8" fill="white" stroke="#4A90E2" stroke-width="1"/>
  <rect x="95" y="100" width="90" height="60" rx="4" fill="#E6F0FF"/>
  <rect x="95" y="170" width="90" height="10" rx="2" fill="#EDF2F7"/>
  <rect x="95" y="190" width="90" height="10" rx="2" fill="#EDF2F7"/>
  <rect x="95" y="210" width="90" height="10" rx="2" fill="#EDF2F7"/>
  <rect x="95" y="230" width="40" height="10" rx="2" fill="#4A90E2"/>
  <circle cx="140" cy="60" r="5" fill="#4A90E2"/>
  <rect x="280" y="80" width="160" height="320" rx="20" fill="#F7FAFC" stroke="#5ECDB6" stroke-width="2"/>
  <rect x="305" y="120" width="110" height="220" rx="8" fill="white" stroke="#5ECDB6" stroke-width="1"/>
  <circle cx="360" cy="100" r="5" fill="#5ECDB6"/>
  <rect x="315" y="140" width="90" height="90" rx="4" fill="#E6FBF8"/>
  <circle cx="335" cy="175" r="10" fill="#5ECDB6"/>
  <path d="M335 165V185M325 175H345" stroke="#4A90E2" stroke-width="2"/>
  <rect x="315" y="240" width="90" height="10" rx="2" fill="#EDF2F7"/>
  <rect x="315" y="260" width="90" height="10" rx="2" fill="#EDF2F7"/>
  <rect x="315" y="280" width="90" height="10" rx="2" fill="#EDF2F7"/>
  <rect x="315" y="300" width="40" height="10" rx="2" fill="#5ECDB6"/>
  <circle cx="140" cy="340" r="15" fill="white" stroke="#4A90E2" stroke-width="2"/>
  <circle cx="360" cy="380" r="15" fill="white" stroke="#5ECDB6" stroke-width="2"/>
  <path d="M92 340C92 340 114 305 140 305C166 305 188 340 188 340" stroke="url(#paint0_linear)" stroke-width="2"/>
  <path d="M312 380C312 380 334 345 360 345C386 345 408 380 408 380" stroke="url(#paint1_linear)" stroke-width="2"/>
  <defs>
    <linearGradient id="paint0_linear" x1="92" y1="305" x2="188" y2="340" gradientUnits="userSpaceOnUse">
      <stop stop-color="#4A90E2"/>
      <stop offset="1" stop-color="#9D8DF1"/>
    </linearGradient>
    <linearGradient id="paint1_linear" x1="312" y1="345" x2="408" y2="380" gradientUnits="userSpaceOnUse">
      <stop stop-color="#5ECDB6"/>
      <stop offset="1" stop-color="#9D8DF1"/>
    </linearGradient>
  </defs>
</svg>