<svg width="500" height="350" viewBox="0 0 500 350" fill="none" xmlns="http://www.w3.org/2000/svg">
  <rect x="50" y="25" width="400" height="300" rx="20" fill="#F7FAFC" stroke="#5ECDB6" stroke-width="2"/>
  
  <!-- Journal Page -->
  <rect x="100" y="50" width="300" height="250" rx="5" fill="white" stroke="#5ECDB6" stroke-width="2"/>
  <line x1="130" y1="50" x2="130" y2="300" stroke="#5ECDB6" stroke-width="1" stroke-dasharray="2 2"/>
  
  <!-- Journal Lines -->
  <line x1="150" y1="80" x2="380" y2="80" stroke="#E2E8F0" stroke-width="1"/>
  <line x1="150" y1="110" x2="380" y2="110" stroke="#E2E8F0" stroke-width="1"/>
  <line x1="150" y1="140" x2="380" y2="140" stroke="#E2E8F0" stroke-width="1"/>
  <line x1="150" y1="170" x2="380" y2="170" stroke="#E2E8F0" stroke-width="1"/>
  <line x1="150" y1="200" x2="380" y2="200" stroke="#E2E8F0" stroke-width="1"/>
  <line x1="150" y1="230" x2="380" y2="230" stroke="#E2E8F0" stroke-width="1"/>
  <line x1="150" y1="260" x2="380" y2="260" stroke="#E2E8F0" stroke-width="1"/>
  <line x1="150" y1="290" x2="380" y2="290" stroke="#E2E8F0" stroke-width="1"/>
  
  <!-- Journal Text -->
  <rect x="150" y="65" width="180" height="10" rx="2" fill="#5ECDB6" fill-opacity="0.6"/>
  <rect x="150" y="95" width="220" height="10" rx="2" fill="#5ECDB6" fill-opacity="0.6"/>
  <rect x="150" y="125" width="200" height="10" rx="2" fill="#5ECDB6" fill-opacity="0.6"/>
  <rect x="150" y="155" width="160" height="10" rx="2" fill="#5ECDB6" fill-opacity="0.6"/>
  <rect x="150" y="185" width="210" height="10" rx="2" fill="#5ECDB6" fill-opacity="0.6"/>
  
  <!-- Journal Date -->
  <rect x="340" y="60" width="30" height="10" rx="2" fill="#4A90E2" fill-opacity="0.6"/>
  
  <!-- Journal Emotions -->
  <circle cx="115" cy="80" r="10" fill="#F97316" fill-opacity="0.6"/>
  <circle cx="115" cy="120" r="10" fill="#9D8DF1" fill-opacity="0.6"/>
  <circle cx="115" cy="160" r="10" fill="#4A90E2" fill-opacity="0.6"/>
  <circle cx="115" cy="200" r="10" fill="#5ECDB6" fill-opacity="0.6"/>
  <circle cx="115" cy="240" r="10" fill="#48BB78" fill-opacity="0.6"/>
</svg>