<svg width="40" height="40" viewBox="0 0 40 40" fill="none" xmlns="http://www.w3.org/2000/svg">
  <path d="M20 5C11.7157 5 5 11.7157 5 20C5 28.2843 11.7157 35 20 35C28.2843 35 35 28.2843 35 20C35 11.7157 28.2843 5 20 5Z" fill="url(#paint0_linear)"/>
  <path d="M20 10C14.4772 10 10 14.4772 10 20C10 25.5228 14.4772 30 20 30C25.5228 30 30 25.5228 30 20C30 14.4772 25.5228 10 20 10Z" fill="white"/>
  <path d="M20 15C17.2386 15 15 17.2386 15 20C15 22.7614 17.2386 25 20 25C22.7614 25 25 22.7614 25 20C25 17.2386 22.7614 15 20 15Z" fill="url(#paint1_linear)"/>
  <defs>
    <linearGradient id="paint0_linear" x1="5" y1="5" x2="35" y2="35" gradientUnits="userSpaceOnUse">
      <stop stop-color="#4A90E2"/>
      <stop offset="1" stop-color="#9D8DF1"/>
    </linearGradient>
    <linearGradient id="paint1_linear" x1="15" y1="15" x2="25" y2="25" gradientUnits="userSpaceOnUse">
      <stop stop-color="#5ECDB6"/>
      <stop offset="1" stop-color="#4A90E2"/>
    </linearGradient>
  </defs>
</svg>