<svg width="500" height="350" viewBox="0 0 500 350" fill="none" xmlns="http://www.w3.org/2000/svg">
  <rect x="50" y="25" width="400" height="300" rx="20" fill="#F7FAFC" stroke="#9D8DF1" stroke-width="2"/>
  <rect x="75" y="50" width="350" height="250" rx="10" fill="white" stroke="#9D8DF1" stroke-width="1"/>
  
  <!-- Meditation Figure -->
  <circle cx="250" cy="100" r="30" fill="#E5D6FF"/>
  <path d="M240 95H245M255 95H260" stroke="#9D8DF1" stroke-width="2" stroke-linecap="round"/>
  <path d="M245 105C245 105 247 107 250 107C253 107 255 105 255 105" stroke="#9D8DF1" stroke-width="2" stroke-linecap="round"/>
  
  <path d="M220 150C220 150 235 130 250 130C265 130 280 150 280 150" stroke="#9D8DF1" stroke-width="2"/>
  <rect x="220" y="150" width="60" height="30" rx="15" fill="#E5D6FF"/>
  
  <path d="M190 210C190 180 215 180 250 180C285 180 310 180 310 210" stroke="#9D8DF1" stroke-width="2"/>
  
  <!-- Meditation Waves -->
  <circle cx="250" cy="150" r="50" fill="none" stroke="#9D8DF1" stroke-width="1" stroke-dasharray="2 2"/>
  <circle cx="250" cy="150" r="80" fill="none" stroke="#9D8DF1" stroke-width="1" stroke-dasharray="4 4"/>
  <circle cx="250" cy="150" r="110" fill="none" stroke="#9D8DF1" stroke-width="1" stroke-dasharray="6 6"/>
  
  <!-- Meditation Timer -->
  <rect x="200" y="250" width="100" height="20" rx="10" fill="#E5D6FF"/>
  <rect x="200" y="250" width="70" height="20" rx="10" fill="#9D8DF1"/>
  <circle cx="270" cy="260" r="6" fill="white"/>
  
  <!-- Time Display -->
  <rect x="225" y="225" width="50" height="15" rx="2" fill="#F7FAFC"/>
  <text x="235" y="237" font-family="sans-serif" font-size="12" fill="#9D8DF1">07:35</text>
</svg>