<svg width="500" height="350" viewBox="0 0 500 350" fill="none" xmlns="http://www.w3.org/2000/svg">
  <rect x="50" y="25" width="400" height="300" rx="20" fill="#F7FAFC" stroke="#4A90E2" stroke-width="2"/>
  
  <!-- World Map Outline -->
  <path d="M150 100C170 90 190 110 210 100C230 90 250 110 270 100C290 90 310 110 330 100C350 90 370 110 390 100" stroke="#E2E8F0" stroke-width="8" stroke-linecap="round"/>
  <path d="M120 130C140 120 160 140 180 130C200 120 220 140 240 130C260 120 280 140 300 130C320 120 340 140 360 130C380 120 400 140 420 130" stroke="#E2E8F0" stroke-width="8" stroke-linecap="round"/>
  <path d="M100 160C120 150 140 170 160 160C180 150 200 170 220 160C240 150 260 170 280 160C300 150 320 170 340 160C360 150 380 170 400 160C420 150 440 170 460 160" stroke="#E2E8F0" stroke-width="8" stroke-linecap="round"/>
  <path d="M120 190C140 180 160 200 180 190C200 180 220 200 240 190C260 180 280 200 300 190C320 180 340 200 360 190C380 180 400 200 420 190" stroke="#E2E8F0" stroke-width="8" stroke-linecap="round"/>
  <path d="M150 220C170 210 190 230 210 220C230 210 250 230 270 220C290 210 310 230 330 220C350 210 370 230 390 220" stroke="#E2E8F0" stroke-width="8" stroke-linecap="round"/>
  
  <!-- People Icons -->
  <circle cx="160" cy="130" r="15" fill="#4A90E2"/>
  <path d="M155 125V135M165 125V135" stroke="white" stroke-width="2" stroke-linecap="round"/>
  <path d="M155 140C155 140 157 143 160 143C163 143 165 140 165 140" stroke="white" stroke-width="2" stroke-linecap="round"/>
  
  <circle cx="240" cy="160" r="15" fill="#5ECDB6"/>
  <path d="M235 155V165M245 155V165" stroke="white" stroke-width="2" stroke-linecap="round"/>
  <path d="M235 170C235 170 237 173 240 173C243 173 245 170 245 170" stroke="white" stroke-width="2" stroke-linecap="round"/>
  
  <circle cx="320" cy="190" r="15" fill="#9D8DF1"/>
  <path d="M315 185V195M325 185V195" stroke="white" stroke-width="2" stroke-linecap="round"/>
  <path d="M315 200C315 200 317 203 320 203C323 203 325 200 325 200" stroke="white" stroke-width="2" stroke-linecap="round"/>
  
  <circle cx="400" cy="160" r="15" fill="#F97316"/>
  <path d="M395 155V165M405 155V165" stroke="white" stroke-width="2" stroke-linecap="round"/>
  <path d="M395 170C395 170 397 173 400 173C403 173 405 170 405 170" stroke="white" stroke-width="2" stroke-linecap="round"/>
  
  <!-- Connection Lines -->
  <line x1="171" y1="142" x2="229" y2="153" stroke="#4A90E2" stroke-width="2" stroke-dasharray="4 4"/>
  <line x1="251" y1="172" x2="309" y2="183" stroke="#5ECDB6" stroke-width="2" stroke-dasharray="4 4"/>
  <line x1="331" y1="183" x2="389" y2="172" stroke="#9D8DF1" stroke-width="2" stroke-dasharray="4 4"/>
  
  <!-- Mission Text -->
  <rect x="150" y="250" width="200" height="20" rx="10" fill="#4A90E2"/>
  <text x="190" y="265" font-family="sans-serif" font-size="14" fill="white">ACCESSIBLE MENTAL HEALTH</text>
</svg>