<svg width="135" height="40" viewBox="0 0 135 40" fill="none" xmlns="http://www.w3.org/2000/svg">
  <rect width="135" height="40" rx="6" fill="black"/>
  <path d="M47.419 10.234C47.419 11.099 47.156 11.786 46.63 12.295C46.036 12.889 45.243 13.186 44.249 13.186C43.295 13.186 42.501 12.886 41.869 12.285C41.236 11.684 40.92 10.963 40.92 10.121C40.92 9.279 41.236 8.558 41.869 7.957C42.501 7.357 43.295 7.056 44.249 7.056C44.72 7.056 45.17 7.14 45.598 7.308C46.026 7.476 46.373 7.7 46.639 7.981L46.044 8.576C45.611 8.084 45.011 7.838 44.242 7.838C43.538 7.838 42.934 8.059 42.434 8.499C41.934 8.94 41.683 9.482 41.683 10.124C41.683 10.767 41.934 11.308 42.434 11.749C42.934 12.19 43.538 12.41 44.242 12.41C44.991 12.41 45.598 12.19 46.064 11.749C46.373 11.441 46.557 11.021 46.614 10.49H44.249V9.725H47.362C47.4 9.897 47.419 10.066 47.419 10.234Z" fill="white"/>
  <path d="M51.957 8.022H49.189V10.003H51.704V10.768H49.189V12.75H51.957V13.534H48.424V7.239H51.957V8.022Z" fill="white"/>
  <path d="M55.303 13.534H54.538V8.022H52.825V7.239H57.016V8.022H55.303V13.534Z" fill="white"/>
  <path d="M60.556 13.534V7.239H61.321V13.534H60.556Z" fill="white"/>
  <path d="M65.188 13.534H64.422V8.022H62.71V7.239H66.901V8.022H65.188V13.534Z" fill="white"/>
  <path d="M76.027 12.778C75.414 13.379 74.645 13.681 73.718 13.681C72.791 13.681 72.022 13.379 71.409 12.778C70.795 12.177 70.489 11.455 70.489 10.613C70.489 9.771 70.795 9.05 71.409 8.449C72.022 7.847 72.791 7.546 73.718 7.546C74.638 7.546 75.407 7.847 76.02 8.449C76.634 9.05 76.94 9.771 76.94 10.613C76.94 11.455 76.634 12.177 76.027 12.778ZM72.009 12.212C72.456 12.653 73.027 12.873 73.718 12.873C74.41 12.873 74.98 12.653 75.427 12.212C75.874 11.771 76.098 11.24 76.098 10.61C76.098 9.98 75.874 9.449 75.427 9.008C74.98 8.567 74.41 8.347 73.718 8.347C73.027 8.347 72.456 8.567 72.009 9.008C71.562 9.449 71.339 9.98 71.339 10.61C71.339 11.24 71.562 11.771 72.009 12.212Z" fill="white"/>
  <path d="M78.191 13.534V7.239H79.117L82.161 12.103H82.193L82.161 10.947V7.239H82.926V13.534H82.131L78.956 8.449H78.923L78.956 9.606V13.534H78.191Z" fill="white"/>
  <path d="M92.747 10.234C92.747 11.099 92.484 11.786 91.957 12.295C91.363 12.889 90.57 13.186 89.577 13.186C88.623 13.186 87.829 12.886 87.196 12.285C86.564 11.684 86.247 10.963 86.247 10.121C86.247 9.279 86.564 8.558 87.196 7.957C87.829 7.357 88.623 7.056 89.577 7.056C90.048 7.056 90.498 7.14 90.925 7.308C91.353 7.476 91.7 7.7 91.966 7.981L91.371 8.576C90.938 8.084 90.338 7.838 89.57 7.838C88.865 7.838 88.262 8.059 87.762 8.499C87.262 8.94 87.011 9.482 87.011 10.124C87.011 10.767 87.262 11.308 87.762 11.749C88.262 12.19 88.865 12.41 89.57 12.41C90.318 12.41 90.925 12.19 91.391 11.749C91.7 11.441 91.885 11.021 91.941 10.49H89.577V9.725H92.69C92.727 9.897 92.747 10.066 92.747 10.234Z" fill="white"/>
  <path d="M97.493 13.534H96.727V10.498H93.805V13.534H93.04V7.239H93.805V9.715H96.727V7.239H97.493V13.534Z" fill="white"/>
  <path d="M101.319 13.534H100.554V8.022H98.841V7.239H103.032V8.022H101.319V13.534Z" fill="white"/>
  <path d="M109.351 13.534H108.586V10.498H105.663V13.534H104.898V7.239H105.663V9.715H108.586V7.239H109.351V13.534Z" fill="white"/>
  <path d="M112.401 13.534H111.636V7.239H112.401V13.534Z" fill="white"/>
  <path d="M116.979 13.534H116.214V8.022H114.501V7.239H118.692V8.022H116.979V13.534Z" fill="white"/>
  <path d="M127.818 12.744C127.205 13.364 126.429 13.674 125.49 13.674C124.551 13.674 123.775 13.364 123.162 12.744C122.548 12.124 122.242 11.406 122.242 10.587C122.242 9.769 122.548 9.05 123.162 8.431C123.775 7.811 124.551 7.5 125.49 7.5C126.422 7.5 127.194 7.811 127.808 8.431C128.421 9.05 128.728 9.769 128.728 10.587C128.728 11.406 128.425 12.124 127.818 12.744ZM123.761 12.185C124.208 12.64 124.787 12.867 125.49 12.867C126.194 12.867 126.769 12.64 127.219 12.185C127.669 11.73 127.894 11.192 127.894 10.571C127.894 9.949 127.669 9.412 127.219 8.957C126.769 8.501 126.194 8.274 125.49 8.274C124.787 8.274 124.211 8.501 123.761 8.957C123.312 9.412 123.087 9.949 123.087 10.571C123.087 11.192 123.312 11.73 123.761 12.185Z" fill="white"/>
  <path d="M130.01 13.534V7.239H130.936L133.98 12.103H134.013L133.98 10.947V7.239H134.745V13.534H133.95L130.775 8.449H130.742L130.775 9.606V13.534H130.01Z" fill="white"/>
  <path d="M68.976 21.695C65.855 21.695 63.317 23.98 63.317 27.174C63.317 30.342 65.855 32.652 68.976 32.652C72.099 32.652 74.635 30.342 74.635 27.174C74.635 23.98 72.097 21.695 68.976 21.695ZM68.976 30.503C67.143 30.503 65.695 29.109 65.695 27.174C65.695 25.214 67.143 23.844 68.976 23.844C70.81 23.844 72.257 25.214 72.257 27.174C72.257 29.109 70.81 30.503 68.976 30.503ZM59.611 21.695C56.489 21.695 53.951 23.98 53.951 27.174C53.951 30.342 56.489 32.652 59.611 32.652C62.733 32.652 65.27 30.342 65.27 27.174C65.27 23.98 62.733 21.695 59.611 21.695ZM59.611 30.503C57.777 30.503 56.33 29.109 56.33 27.174C56.33 25.214 57.777 23.844 59.611 23.844C61.444 23.844 62.892 25.214 62.892 27.174C62.892 29.109 61.444 30.503 59.611 30.503ZM48.466 23.416V25.674H53.951C53.817 26.789 53.429 27.613 52.842 28.2C52.107 28.934 51.026 29.744 48.466 29.744C44.72 29.744 41.8 26.74 41.8 22.994C41.8 19.248 44.72 16.244 48.466 16.244C50.519 16.244 52.01 17.066 53.126 18.109L54.704 16.531C53.183 15.083 51.221 13.95 48.467 13.95C43.479 13.95 39.3 17.986 39.3 22.994C39.3 28.002 43.479 32.038 48.467 32.038C51.172 32.038 53.183 31.132 54.753 29.513C56.372 27.894 56.882 25.599 56.882 23.739C56.882 23.173 56.833 22.655 56.736 22.21H48.466V23.416ZM94.484 24.665C94.043 23.478 92.736 21.695 90.096 21.695C87.48 21.695 85.337 23.905 85.337 27.174C85.337 30.245 87.455 32.652 90.367 32.652C92.639 32.652 94.043 31.229 94.606 30.318L92.664 29.06C92.076 29.98 91.365 30.503 90.367 30.503C89.374 30.503 88.656 30.063 88.17 29.06L94.703 26.398L94.484 24.665ZM87.799 27.296C87.751 25.214 89.422 23.819 90.194 23.819C90.807 23.819 91.323 24.115 91.517 24.557L87.799 27.296ZM83.933 32H86.311V14.35H83.933V32ZM80.836 23.075H80.738C80.222 22.455 79.202 21.695 77.816 21.695C75.325 21.695 73.033 23.905 73.033 27.199C73.033 30.464 75.325 32.652 77.816 32.652C79.202 32.652 80.222 31.892 80.738 31.255H80.836V32.063C80.836 34.218 79.595 35.46 77.865 35.46C76.453 35.46 75.569 34.486 75.202 33.669L73.134 34.583C73.724 35.933 75.324 37.608 77.865 37.608C80.615 37.608 83.093 36.055 83.093 31.719V22.02H80.836V23.075ZM78.014 30.503C76.18 30.503 75.413 29.085 75.413 27.174C75.413 25.239 76.18 23.844 78.014 23.844C79.824 23.844 80.663 25.263 80.663 27.174C80.663 29.06 79.824 30.503 78.014 30.503ZM102.363 14.35H97.038V32H99.414V25.042H102.363C104.829 25.042 107.254 23.246 107.254 19.697C107.254 16.146 104.825 14.35 102.363 14.35ZM102.437 22.824H99.414V16.569H102.437C104.169 16.569 104.877 18.132 104.877 19.697C104.877 21.235 104.169 22.824 102.437 22.824ZM116.157 21.67C114.449 21.67 112.659 22.357 111.883 24.09L113.927 24.997C114.406 24.09 115.291 23.819 116.205 23.819C117.49 23.819 118.794 24.604 118.818 25.966V26.18C118.353 25.917 117.442 25.527 116.229 25.527C113.976 25.527 111.692 26.936 111.692 29.255C111.692 31.352 113.512 32.677 115.56 32.677C117.123 32.677 118.01 31.939 118.572 31.107H118.669V32.024H120.952V26.155C120.952 23.307 118.87 21.67 116.157 21.67ZM115.876 30.528C115.073 30.528 114.071 30.138 114.071 29.304C114.071 28.2 115.34 27.736 116.449 27.736C117.439 27.736 117.925 27.955 118.572 28.248C118.425 29.597 117.196 30.528 115.876 30.528ZM127.969 22.02L125.25 28.397H125.151L122.336 22.02H119.761L123.889 31.279L121.474 36.621H123.976L130.619 22.02H127.969ZM110.485 32H112.863V14.35H110.485V32Z" fill="white"/>
  <path fill-rule="evenodd" clip-rule="evenodd" d="M12.214 8.5C11.917 8.814 11.75 9.263 11.75 9.825V30.175C11.75 30.737 11.917 31.186 12.214 31.5L12.28 31.562L24.71 19.131V19V18.869L12.28 6.438L12.214 8.5Z" fill="url(#paint0_linear)"/>
  <path fill-rule="evenodd" clip-rule="evenodd" d="M28.88 23.3L24.71 19.131V19V18.869L28.88 14.7L28.96 14.747L33.97 17.603C35.37 18.4 35.37 19.6 33.97 20.397L28.96 23.254L28.88 23.3Z" fill="url(#paint1_linear)"/>
  <path fill-rule="evenodd" clip-rule="evenodd" d="M28.96 23.254L24.71 19L12.214 31.5C12.66 31.972 13.369 32.039 14.173 31.567L28.96 23.254Z" fill="url(#paint2_linear)"/>
  <path fill-rule="evenodd" clip-rule="evenodd" d="M28.96 14.747L14.173 6.433C13.369 5.961 12.66 6.028 12.214 6.5L24.71 19L28.96 14.747Z" fill="url(#paint3_linear)"/>
  <defs>
    <linearGradient id="paint0_linear" x1="23.673" y1="30.453" x2="6.516" y2="13.296" gradientUnits="userSpaceOnUse">
      <stop stop-color="#00A0FF"/>
      <stop offset="0.007" stop-color="#00A1FF"/>
      <stop offset="0.26" stop-color="#00BEFF"/>
      <stop offset="0.512" stop-color="#00D2FF"/>
      <stop offset="0.76" stop-color="#00DFFF"/>
      <stop offset="1" stop-color="#00E3FF"/>
    </linearGradient>
    <linearGradient id="paint1_linear" x1="35.785" y1="19" x2="11.297" y2="19" gradientUnits="userSpaceOnUse">
      <stop stop-color="#FFE000"/>
      <stop offset="0.409" stop-color="#FFBD00"/>
      <stop offset="0.775" stop-color="#FFA500"/>
      <stop offset="1" stop-color="#FF9C00"/>
    </linearGradient>
    <linearGradient id="paint2_linear" x1="26.644" y1="21.316" x2="3.582" y2="-1.746" gradientUnits="userSpaceOnUse">
      <stop stop-color="#FF3A44"/>
      <stop offset="1" stop-color="#C31162"/>
    </linearGradient>
    <linearGradient id="paint3_linear" x1="8.819" y1="38.157" x2="19.658" y2="27.318" gradientUnits="userSpaceOnUse">
      <stop stop-color="#32A071"/>
      <stop offset="0.069" stop-color="#2DA771"/>
      <stop offset="0.476" stop-color="#15CF74"/>
      <stop offset="0.801" stop-color="#06E775"/>
      <stop offset="1" stop-color="#00F076"/>
    </linearGradient>
  </defs>
</svg>