<svg width="500" height="350" viewBox="0 0 500 350" fill="none" xmlns="http://www.w3.org/2000/svg">
  <rect x="50" y="25" width="400" height="300" rx="20" fill="#F7FAFC" stroke="#5ECDB6" stroke-width="2"/>
  
  <!-- SDG Circular Arrangement -->
  <circle cx="250" cy="175" r="120" fill="none" stroke="#E2E8F0" stroke-width="2" stroke-dasharray="4 4"/>
  
  <!-- SDG Goal 3 (Health) -->
  <circle cx="250" cy="55" r="40" fill="#4A90E2"/>
  <text x="225" y="60" font-family="sans-serif" font-size="20" font-weight="bold" fill="white">SDG 3</text>
  <text x="220" y="75" font-family="sans-serif" font-size="10" fill="white">GOOD HEALTH</text>
  
  <!-- Other SDG Icons (Simplified) -->
  <circle cx="130" cy="130" r="25" fill="#E2E8F0"/>
  <text x="125" y="135" font-family="sans-serif" font-size="14" font-weight="bold" fill="#718096">1</text>
  
  <circle cx="370" cy="130" r="25" fill="#E2E8F0"/>
  <text x="365" y="135" font-family="sans-serif" font-size="14" font-weight="bold" fill="#718096">5</text>
  
  <circle cx="130" cy="220" r="25" fill="#E2E8F0"/>
  <text x="125" y="225" font-family="sans-serif" font-size="14" font-weight="bold" fill="#718096">10</text>
  
  <circle cx="370" cy="220" r="25" fill="#E2E8F0"/>
  <text x="365" y="225" font-family="sans-serif" font-size="14" font-weight="bold" fill="#718096">17</text>
  
  <circle cx="180" cy="280" r="25" fill="#E2E8F0"/>
  <text x="175" y="285" font-family="sans-serif" font-size="14" font-weight="bold" fill="#718096">8</text>
  
  <circle cx="320" cy="280" r="25" fill="#E2E8F0"/>
  <text x="315" y="285" font-family="sans-serif" font-size="14" font-weight="bold" fill="#718096">9</text>
  
  <!-- Heart Icon -->
  <path d="M250 150C250 150 235 130 215 130C195 130 180 145 180 165C180 200 250 230 250 230C250 230 320 200 320 165C320 145 305 130 285 130C265 130 250 150 250 150Z" fill="#5ECDB6"/>
  
  <!-- Connection Lines -->
  <line x1="250" y1="95" x2="250" y2="130" stroke="#4A90E2" stroke-width="2" stroke-dasharray="4 4"/>
  <line x1="154" y1="138" x2="210" y2="150" stroke="#4A90E2" stroke-width="1" stroke-dasharray="2 2"/>
  <line x1="346" y1="138" x2="290" y2="150" stroke="#4A90E2" stroke-width="1" stroke-dasharray="2 2"/>
  <line x1="155" y1="212" x2="210" y2="180" stroke="#4A90E2" stroke-width="1" stroke-dasharray="2 2"/>
  <line x1="345" y1="212" x2="290" y2="180" stroke="#4A90E2" stroke-width="1" stroke-dasharray="2 2"/>
  <line x1="196" y1="261" x2="225" y2="210" stroke="#4A90E2" stroke-width="1" stroke-dasharray="2 2"/>
  <line x1="304" y1="261" x2="275" y2="210" stroke="#4A90E2" stroke-width="1" stroke-dasharray="2 2"/>
</svg>